# xmcd
#
# Track frame offsets: 
#        150
#        16312
#        37947
#        68237
#        83637
#        107088
#        143117
#        159997
#        186012
#        199525
#        215299
#        241558
#        270121
#        296059
#        314792
#
# Disc length: 4498 seconds
#
# Revision: 1
# Processed by: cddbd v1.5.2PL0 Copyright (c) Steve Scherf et al.
# Submitted via: ExactAudioCopy v1.0b3
#
DISCID=c311900f
DTITLE=Various Artist - Was geht ab?! - Wir tanzen Deutsch Vol. 2 [CD
DTITLE=2)
DYEAR=2010
DGENRE=Pop
TTITLE0=Finger and Kadel - Laut (Bigroom Mix Edit)
TTITLE1=DJ Phil - Ich vermisse dich (De-Grees Remix)
TTITLE2=Ziggy X. - Herzklopfen (Original Mix)
TTITLE3=Heimatverein - Disco Pogo
TTITLE4=Station 89 - Ich will leben (Cansis Remix)
TTITLE5=Bangbros - 1,2,3 ... Feierschweinerei (Club Mix)
TTITLE6=MJ and The Beatbreaker - Lauter, h‰rter, schneller (Franky B. vs
TTITLE6=Commercial Bitches Rmx)
TTITLE7=Engel B. - H‰nde hoch (Happy Vibes Extended Mix)
TTITLE8=Onkel Bernie - Zu klein (Radio Version)
TTITLE9=Pogo Clubbers - Das geht ab (Wir feiern die ganze Nacht)
TTITLE10=Rob Kay feat. David Posor - Keine wie du (Jaxx N Danger Remix
TTITLE10=)
TTITLE11=Bangboy vs. Hansebanger - Hamburg City (Langenhagen Remix)
TTITLE12=Laserkraft 3D - Polyester (Original Mix)
TTITLE13=DJ Antoine feat. MC Roby Rob - Ich find' dich Scheiﬂe (Origin
TTITLE13=al Mix)
TTITLE14=Danke Anke feat. Georg S. - 'Tschuldigung ... Ficken (FSK 18 
TTITLE14=Mix)
EXTD=
EXTT0=
EXTT1=
EXTT2=
EXTT3=
EXTT4=
EXTT5=
EXTT6=
EXTT7=
EXTT8=
EXTT9=
EXTT10=
EXTT11=
EXTT12=
EXTT13=
EXTT14=
PLAYORDER=
